<svg id="Layer_1" data-name="Layer 1" xmlns="http://www.w3.org/2000/svg" viewBox="0 0 364.59 364.59"><defs><style>.cls-1{fill:#434345;}.cls-2{fill:#fff;}</style></defs><title>linkedin</title><rect class="cls-1" width="364.59" height="364.59"/><path class="cls-2" d="M85.8,55.37A30.65,30.65,0,0,1,116.24,86c0,17.57-14.62,30.81-30.64,30.44-16.25.32-30.53-13.25-30.52-30.56A30.66,30.66,0,0,1,85.8,55.37Zm0,0"/><path class="cls-2" d="M103.54,309.18H67.77a8.41,8.41,0,0,1-8.41-8.41V148.15a8.4,8.4,0,0,1,8.41-8.41h35.77a8.4,8.4,0,0,1,8.41,8.41V300.77a8.41,8.41,0,0,1-8.41,8.41Zm0,0"/><path class="cls-2" d="M309.51,193.34a57.94,57.94,0,0,0-57.94-57.93h-9.18A51.66,51.66,0,0,0,197.3,162a4.56,4.56,0,0,0-.47-.06V143.23a3.49,3.49,0,0,0-3.49-3.49H148.7a3.49,3.49,0,0,0-3.49,3.49V305.69a3.49,3.49,0,0,0,3.49,3.49h45.61a3.49,3.49,0,0,0,3.49-3.49V211.84A29.76,29.76,0,0,1,227,182a29.5,29.5,0,0,1,29.84,29.51v94.24a3.49,3.49,0,0,0,3.49,3.49H306a3.48,3.48,0,0,0,3.48-3.49V193.34Zm0,0"/></svg>