<?xml version="1.0" encoding="utf-8"?>
<!-- Generator: Adobe Illustrator 24.0.1, SVG Export Plug-In . SVG Version: 6.00 Build 0)  -->
<svg version="1.1" id="Layer_1" xmlns="http://www.w3.org/2000/svg" xmlns:xlink="http://www.w3.org/1999/xlink" x="0px" y="0px"
	 viewBox="0 0 1236 1060" style="enable-background:new 0 0 1236 1060;" xml:space="preserve">
<style type="text/css">
	.st0{fill:none;stroke:#FFD67B;stroke-width:64;stroke-miterlimit:10;}
	.st1{fill:#FEBE10;stroke:#FEBE10;stroke-width:40;stroke-miterlimit:10;}
	.st2{fill:none;stroke:#FFE18B;stroke-width:44;stroke-miterlimit:10;}
	.st3{enable-background:new    ;}
	.st4{fill:#F9B712;}
</style>
<title>Sandra&amp;apos;s Logo</title>
<g id="Sandra_s_Logo">
	<polygon id="H" class="st0" points="997,177.4 997,620.2 744.6,620.2 744.6,473.4 492.2,473.4 492.2,620.2 239.8,620.2 
		239.8,177.4 492.2,177.4 492.2,304.4 743.2,304.4 743.2,177.4 	"/>
	<path id="T" class="st1" d="M273,26h688v121.6H719.4c0,197.5,0,394.9,0,592.4c-72.1-0.5-128.6,0.4-200.6-0.1
		c-0.5-197.3-1.2-394.6-1.9-592l-243.8-1.2L273,26z"/>
	<line id="_-Bot" class="st2" x1="460.6" y1="463.1" x2="776" y2="463.1"/>
	<line id="_-Top" class="st2" x1="460.2" y1="314.2" x2="774.7" y2="314.2"/>
	<g class="st3">
		<path class="st4" d="M78.1,961.6c0-8.4-1.8-10.1-10.1-10.1H42c-22.4,0-31.9-11.2-31.9-31.2v-57.8c0-20,10.1-30.8,32.6-30.8H77
			c22.8,0,32.6,10.8,32.6,30.8v32.2H77.7v-27.3c0-8.4-2.1-10.2-10.5-10.2H52.5c-8.4,0-10.5,1.8-10.5,10.2v48.7
			c0,8.4,2.1,10.1,10.5,10.1h25.6c22.4,0,32.2,10.9,32.2,30.8v63c0,20-10.1,30.8-32.9,30.8h-34c-22.4,0-32.6-10.9-32.6-30.8v-32.2
			h31.9v27.3c0,8.4,2.1,10.1,10.5,10.1h14.7c8.4,0,10.1-1.8,10.1-10.1V961.6z"/>
		<path class="st4" d="M233.8,880v170.8h-31.5v-13.7c-3.2,9.5-10.9,13.7-21.7,13.7H168c-21.7,0-31.5-10.9-31.5-30.8V911.2
			c0-20.3,9.8-31.2,31.5-31.2h12.6c10.9,0,18.6,4.2,21.7,13.7V880H233.8z M190.8,1025.3c8,0,11.6-3.1,11.6-12.2v-95.2
			c0-9.1-3.5-12.3-11.6-12.3h-12.3c-8.4,0-10.5,1.8-10.5,10.2v99.4c0,8.4,2.1,10.1,10.5,10.1H190.8z"/>
		<path class="st4" d="M330.1,880c21.7,0,31.9,10.8,31.9,31.2v139.7h-31.5V915.7c0-8.4-2.1-10.2-10.5-10.2h-12.2
			c-8.1,0-11.6,3.2-11.6,12.3v133h-31.5V880h31.5v13.7c3.1-9.5,10.9-13.7,21.7-13.7H330.1z"/>
		<path class="st4" d="M487.6,816.7v234.2h-31.5v-13.7c-3.2,9.5-10.9,13.7-21.7,13.7h-12.6c-21.7,0-31.5-10.9-31.5-30.8V910.8
			c0-20.3,9.8-31.2,31.5-31.2h12.6c10.9,0,18.6,4.2,21.7,13.7v-76.7H487.6z M444.5,1025.3c8.1,0,11.6-3.1,11.6-12.2v-95.6
			c0-9.1-3.5-12.2-11.6-12.2h-12.3c-8.4,0-10.5,2.1-10.5,10.2v99.8c0,8.4,2.1,10.1,10.5,10.1H444.5z"/>
		<path class="st4" d="M584.5,879.7V907h-12.6c-15.1,0-22.1,8.4-22.1,25.9v118h-31.5V880h31.5v21c3.5-11.2,12.6-21.4,27.7-21.4
			H584.5z"/>
		<path class="st4" d="M696.9,880v170.8h-31.5v-13.7c-3.2,9.5-10.9,13.7-21.7,13.7h-12.6c-21.7,0-31.5-10.9-31.5-30.8V911.2
			c0-20.3,9.8-31.2,31.5-31.2h12.6c10.8,0,18.5,4.2,21.7,13.7V880H696.9z M653.8,1025.3c8.1,0,11.6-3.1,11.6-12.2v-95.2
			c0-9.1-3.5-12.3-11.6-12.3h-12.2c-8.4,0-10.5,1.8-10.5,10.2v99.4c0,8.4,2.1,10.1,10.5,10.1H653.8z"/>
		<path class="st4" d="M869.8,857.3H833v193.6h-31.5V857.3h-36.8v-25.5h105V857.3z"/>
		<path class="st4" d="M944,988.2c0-8.4-2.1-10.1-10.5-10.1h-17.9c-22.8,0-32.6-10.9-32.6-30.8v-36.1c0-20.3,10.2-31.2,32.6-31.2
			h25.6c22.8,0,32.9,10.8,32.9,31.2v16.5h-30.8v-13.3c0-8.4-2.1-10.2-10.5-10.2h-8.4c-8.4,0-10.5,1.8-10.5,10.2v29.4
			c0,8.4,2.1,10.1,10.5,10.1h18.2c22.4,0,32.2,10.9,32.2,31.2v35c0,20-10.2,30.8-32.6,30.8h-25.9c-22.4,0-32.6-10.9-32.6-30.8v-16.8
			h30.8v13.3c0,8.4,2.1,10.2,10.5,10.2h8.4c8.4,0,10.5-1.8,10.5-10.2V988.2z"/>
		<path class="st4" d="M1096.9,880v170.8h-31.5v-13.7c-3.2,9.5-10.9,13.7-21.7,13.7h-12.6c-21.7,0-31.5-10.9-31.5-30.8V911.2
			c0-20.3,9.8-31.2,31.5-31.2h12.6c10.8,0,18.5,4.2,21.7,13.7V880H1096.9z M1053.8,1025.3c8.1,0,11.6-3.1,11.6-12.2v-95.2
			c0-9.1-3.5-12.3-11.6-12.3h-12.2c-8.4,0-10.5,1.8-10.5,10.2v99.4c0,8.4,2.1,10.1,10.5,10.1H1053.8z"/>
		<path class="st4" d="M1195.6,880c22.8,0,32.5,10.8,32.5,31.2V1020c0,20-9.8,30.8-32.5,30.8h-37.5c-22.4,0-32.2-10.9-32.2-30.8
			V911.2c0-20.3,9.8-31.2,32.2-31.2H1195.6z M1197,915.4c0-8.4-2.1-10.5-10.5-10.5h-19.2c-8.4,0-10.2,2.1-10.2,10.5v100.1
			c0,8.4,1.8,10.5,10.2,10.5h19.2c8.4,0,10.5-2.1,10.5-10.5V915.4z"/>
	</g>
</g>
</svg>
